<?xml version="1.0" encoding="UTF-8"?>
<!-- Generator: CustomSymbols v2.6.4.43 by @serious_bret https://bretlester.com/app_content/CustomSymbols/ -->
<!-- Guides: Left/Right -0.011/-0.011 Cap/Base 0.13/0.13 -->
<!-- Settings: RefScale 1.0 Min/Max Stroke Scales 0.5/2.21 -->
<!DOCTYPE svg
PUBLIC "-//W3C//DTD SVG 1.1//EN"
       "http://www.w3.org/Graphics/SVG/1.1/DTD/svg11.dtd">
<svg version="1.1" xmlns="http://www.w3.org/2000/svg" xmlns:xlink="http://www.w3.org/1999/xlink" width="3300" height="2200">
<![CDATA[<svg width="28" height="28" viewBox="0 0 28 28" fill="none" xmlns="http://www.w3.org/2000/svg">
<path d="M10.8776 2.73635C11.8869 2.45655 12.9367 2.31158 14 2.31158C16.8357 2.31158 19.5747 3.34247 21.7067 5.21218C23.8387 7.0819 25.2183 9.66291 25.5885 12.4744C25.9586 15.2858 25.294 18.1359 23.7186 20.4937C22.3581 22.5299 20.3985 24.0789 18.1251 24.9363C17.5278 25.1616 17.1591 25.79 17.3244 26.4066C17.4896 27.0231 18.1255 27.3936 18.7264 27.1781C21.5405 26.1689 23.9684 24.2806 25.6406 21.778C27.5276 18.9539 28.3236 15.5401 27.8803 12.1726C27.4369 8.80518 25.7845 5.71372 23.2309 3.47424C20.6772 1.23477 17.3966 0 14 0C12.477 0 10.9772 0.248293 9.55577 0.724136C10.118 1.29912 10.5702 1.98145 10.8776 2.73635Z" fill="black"/>
<path d="M0.731958 9.53245C0.444807 10.3852 0.238774 11.269 0.119807 12.1726C-0.323529 15.5401 0.472455 18.9539 2.35946 21.778C4.03164 24.2806 6.45952 26.1689 9.27367 27.1781C9.87453 27.3936 10.5105 27.0231 10.6757 26.4066C10.8409 25.79 10.4722 25.1616 9.87496 24.9363C7.60159 24.0789 5.64196 22.5298 4.28147 20.4937C2.70604 18.1359 2.04148 15.2858 2.41162 12.4744C2.4842 11.923 2.5956 11.3806 2.74389 10.8506C1.99002 10.5435 1.30757 10.0932 0.731958 9.53245Z" fill="black"/>
<path d="M0.84375 5.05783C0.84375 7.42033 2.76875 9.31033 5.09625 9.31033C7.42375 9.31033 9.33125 7.42033 9.33125 5.05783C9.33125 2.74783 7.42375 0.840332 5.09625 0.840332C2.76875 0.840332 0.84375 2.74783 0.84375 5.05783Z" fill="black"/>
</svg>
]]>
 <g id="Notes">
  <rect height="2200" id="artboard" style="fill:white;opacity:1" width="3300" x="0" y="0"/>
  <line id="" style="fill:none;stroke:black;opacity:1;stroke-width:0.5;" x1="263" x2="3036" y1="292" y2="292"/>
  <text id="reftext1" style="stroke:none;fill:black;font-family:-apple-system,&quot;SF Pro Display&quot;,&quot;SF Pro Text&quot;,Helvetica,sans-serif;font-weight:bold;" transform="matrix(1 0 0 1 263 322)">Weight/Scale Variations</text>
  <text id="reftext2" style="stroke:none;fill:black;font-family:-apple-system,&quot;SF Pro Display&quot;,&quot;SF Pro Text&quot;,Helvetica,sans-serif;text-anchor:middle;" transform="matrix(1 0 0 1 559.711 322)">Ultralight</text>
  <text style="stroke:none;fill:black;font-family:-apple-system,&quot;SF Pro Display&quot;,&quot;SF Pro Text&quot;,Helvetica,sans-serif;text-anchor:middle;" transform="matrix(1 0 0 1 856.422 322)">Thin</text>
  <text style="stroke:none;fill:black;font-family:-apple-system,&quot;SF Pro Display&quot;,&quot;SF Pro Text&quot;,Helvetica,sans-serif;text-anchor:middle;" transform="matrix(1 0 0 1 1153.13 322)">Light</text>
  <text style="stroke:none;fill:black;font-family:-apple-system,&quot;SF Pro Display&quot;,&quot;SF Pro Text&quot;,Helvetica,sans-serif;text-anchor:middle;" transform="matrix(1 0 0 1 1449.84 322)">Regular</text>
  <text style="stroke:none;fill:black;font-family:-apple-system,&quot;SF Pro Display&quot;,&quot;SF Pro Text&quot;,Helvetica,sans-serif;text-anchor:middle;" transform="matrix(1 0 0 1 1746.56 322)">Medium</text>
  <text style="stroke:none;fill:black;font-family:-apple-system,&quot;SF Pro Display&quot;,&quot;SF Pro Text&quot;,Helvetica,sans-serif;text-anchor:middle;" transform="matrix(1 0 0 1 2043.27 322)">Semibold</text>
  <text style="stroke:none;fill:black;font-family:-apple-system,&quot;SF Pro Display&quot;,&quot;SF Pro Text&quot;,Helvetica,sans-serif;text-anchor:middle;" transform="matrix(1 0 0 1 2339.98 322)">Bold</text>
  <text style="stroke:none;fill:black;font-family:-apple-system,&quot;SF Pro Display&quot;,&quot;SF Pro Text&quot;,Helvetica,sans-serif;text-anchor:middle;" transform="matrix(1 0 0 1 2636.69 322)">Heavy</text>
  <text style="stroke:none;fill:black;font-family:-apple-system,&quot;SF Pro Display&quot;,&quot;SF Pro Text&quot;,Helvetica,sans-serif;text-anchor:middle;" transform="matrix(1 0 0 1 2933.4 322)">Black</text>
  <line id="" style="fill:none;stroke:black;opacity:1;stroke-width:0.5;" x1="263" x2="3036" y1="1903" y2="1903"/>
  <g id="" transform="matrix(1 0 0 1 263 1933)">
   <path d="M9.24805 0.830078C13.5547 0.830078 17.1387-2.74414 17.1387-7.05078C17.1387-11.3574 13.5449-14.9316 9.23828-14.9316C4.94141-14.9316 1.36719-11.3574 1.36719-7.05078C1.36719-2.74414 4.95117 0.830078 9.24805 0.830078ZM9.24805-0.654297C5.70312-0.654297 2.87109-3.49609 2.87109-7.05078C2.87109-10.6055 5.69336-13.4473 9.23828-13.4473C12.793-13.4473 15.6348-10.6055 15.6445-7.05078C15.6543-3.49609 12.8027-0.654297 9.24805-0.654297ZM6.39648-6.31836L8.50586-6.31836L8.50586-4.19922C8.50586-3.75977 8.79883-3.45703 9.22852-3.45703C9.67773-3.45703 9.9707-3.75977 9.9707-4.19922L9.9707-6.31836L12.0996-6.31836C12.5391-6.31836 12.8418-6.61133 12.8418-7.04102C12.8418-7.48047 12.5391-7.7832 12.0996-7.7832L9.9707-7.7832L9.9707-9.89258C9.9707-10.3418 9.67773-10.6445 9.22852-10.6445C8.79883-10.6445 8.50586-10.3418 8.50586-9.89258L8.50586-7.7832L6.39648-7.7832C5.94727-7.7832 5.64453-7.48047 5.64453-7.04102C5.64453-6.61133 5.94727-6.31836 6.39648-6.31836Z"/>
  </g>
  <g id="" transform="matrix(1 0 0 1 281.506 1933)">
   <path d="M11.709 2.91016C17.1582 2.91016 21.6699-1.61133 21.6699-7.05078C21.6699-12.5 17.1484-17.0117 11.6992-17.0117C6.25977-17.0117 1.74805-12.5 1.74805-7.05078C1.74805-1.61133 6.26953 2.91016 11.709 2.91016ZM11.709 1.25C7.09961 1.25 3.41797-2.44141 3.41797-7.05078C3.41797-11.6602 7.08984-15.3516 11.6992-15.3516C16.3086-15.3516 20-11.6602 20.0098-7.05078C20.0195-2.44141 16.3184 1.25 11.709 1.25ZM7.98828-6.23047L10.8789-6.23047L10.8789-3.32031C10.8789-2.83203 11.2109-2.5 11.6895-2.5C12.1777-2.5 12.5195-2.83203 12.5195-3.32031L12.5195-6.23047L15.4297-6.23047C15.918-6.23047 16.25-6.5625 16.25-7.04102C16.25-7.5293 15.918-7.87109 15.4297-7.87109L12.5195-7.87109L12.5195-10.7617C12.5195-11.2695 12.1777-11.6016 11.6895-11.6016C11.2109-11.6016 10.8789-11.2598 10.8789-10.7617L10.8789-7.87109L7.98828-7.87109C7.48047-7.87109 7.14844-7.5293 7.14844-7.04102C7.14844-6.5625 7.49023-6.23047 7.98828-6.23047Z"/>
  </g>
  <g id="" transform="matrix(1 0 0 1 304.924 1933)">
   <path d="M14.9707 5.66406C21.9336 5.66406 27.6953-0.0976562 27.6953-7.05078C27.6953-14.0137 21.9238-19.7754 14.9609-19.7754C8.00781-19.7754 2.25586-14.0137 2.25586-7.05078C2.25586-0.0976562 8.01758 5.66406 14.9707 5.66406ZM14.9707 3.84766C8.93555 3.84766 4.08203-1.01562 4.08203-7.05078C4.08203-13.0957 8.92578-17.9492 14.9609-17.9492C21.0059-17.9492 25.8594-13.0957 25.8691-7.05078C25.8789-1.01562 21.0156 3.84766 14.9707 3.84766ZM10.0586-6.14258L14.0625-6.14258L14.0625-2.12891C14.0625-1.5918 14.4336-1.2207 14.9512-1.2207C15.4883-1.2207 15.8594-1.5918 15.8594-2.12891L15.8594-6.14258L19.8828-6.14258C20.4102-6.14258 20.791-6.51367 20.791-7.03125C20.791-7.56836 20.4199-7.94922 19.8828-7.94922L15.8594-7.94922L15.8594-11.9531C15.8594-12.5098 15.4883-12.8809 14.9512-12.8809C14.4336-12.8809 14.0625-12.5 14.0625-11.9531L14.0625-7.94922L10.0586-7.94922C9.50195-7.94922 9.13086-7.56836 9.13086-7.03125C9.13086-6.51367 9.51172-6.14258 10.0586-6.14258Z"/>
  </g>
  <text style="stroke:none;fill:black;font-family:-apple-system,&quot;SF Pro Display&quot;,&quot;SF Pro Text&quot;,Helvetica,sans-serif;font-weight:bold;" transform="matrix(1 0 0 1 263 1953)">Design Variations</text>
  <text style="stroke:none;fill:black;font-family:-apple-system,&quot;SF Pro Display&quot;,&quot;SF Pro Text&quot;,Helvetica,sans-serif;" transform="matrix(1 0 0 1 263 1971)">Symbols are supported in up to nine weights and three scales.</text>
  <text style="stroke:none;fill:black;font-family:-apple-system,&quot;SF Pro Display&quot;,&quot;SF Pro Text&quot;,Helvetica,sans-serif;" transform="matrix(1 0 0 1 263 1989)">For optimal layout with text and other symbols, vertically align</text>
  <text style="stroke:none;fill:black;font-family:-apple-system,&quot;SF Pro Display&quot;,&quot;SF Pro Text&quot;,Helvetica,sans-serif;" transform="matrix(1 0 0 1 263 2007)">symbols with the adjacent text.</text>
  <line id="" style="fill:none;stroke:#00AEEF;stroke-width:0.5;opacity:1.0;" x1="776" x2="776" y1="1919" y2="1933"/>
  <g id="" transform="matrix(1 0 0 1 776 1933)">
   <path d="M3.31055 0.126953C3.82812 0.126953 4.08203-0.0683594 4.26758-0.605469L5.52734-4.0625L11.2891-4.0625L12.5488-0.605469C12.7344-0.0683594 12.9883 0.126953 13.4961 0.126953C14.0137 0.126953 14.3457-0.185547 14.3457-0.673828C14.3457-0.839844 14.3164-0.986328 14.2383-1.20117L9.6582-13.3887C9.43359-13.9941 9.0332-14.2871 8.4082-14.2871C7.80273-14.2871 7.39258-13.9941 7.17773-13.3984L2.59766-1.19141C2.51953-0.976562 2.49023-0.830078 2.49023-0.664062C2.49023-0.175781 2.80273 0.126953 3.31055 0.126953ZM6.00586-5.53711L8.37891-12.1094L8.42773-12.1094L10.8008-5.53711Z"/>
  </g>
  <line id="" style="fill:none;stroke:#00AEEF;stroke-width:0.5;opacity:1.0;" x1="792.836" x2="792.836" y1="1919" y2="1933"/>
  <text style="stroke:none;fill:black;font-family:-apple-system,&quot;SF Pro Display&quot;,&quot;SF Pro Text&quot;,Helvetica,sans-serif;font-weight:bold;" transform="matrix(1 0 0 1 776 1953)">Margins</text>
  <text style="stroke:none;fill:black;font-family:-apple-system,&quot;SF Pro Display&quot;,&quot;SF Pro Text&quot;,Helvetica,sans-serif;" transform="matrix(1 0 0 1 776 1971)">Leading and trailing margins on the left and right side of each symbol</text>
  <text style="stroke:none;fill:black;font-family:-apple-system,&quot;SF Pro Display&quot;,&quot;SF Pro Text&quot;,Helvetica,sans-serif;" transform="matrix(1 0 0 1 776 1989)">can be adjusted by modifying the x-location of the margin guidelines.</text>
  <text style="stroke:none;fill:black;font-family:-apple-system,&quot;SF Pro Display&quot;,&quot;SF Pro Text&quot;,Helvetica,sans-serif;" transform="matrix(1 0 0 1 776 2007)">Modifications are automatically applied proportionally to all</text>
  <text style="stroke:none;fill:black;font-family:-apple-system,&quot;SF Pro Display&quot;,&quot;SF Pro Text&quot;,Helvetica,sans-serif;" transform="matrix(1 0 0 1 776 2025)">scales and weights.</text>
  <g id="" transform="matrix(1 0 0 1 1289 1933)">
   <path d="M2.8418 1.86523L4.54102 3.57422C5.40039 4.44336 6.38672 4.38477 7.31445 3.35938L17.4902-7.85156C17.7539-7.76367 18.0273-7.7832 18.3398-7.8418L19.4043-8.03711L20.0684-7.36328L20.0293-6.80664C19.9902-6.30859 20.1172-5.92773 20.6055-5.44922L21.3672-4.70703C21.8457-4.22852 22.4609-4.19922 22.9297-4.66797L25.8398-7.58789C26.3086-8.05664 26.2891-8.65234 25.8105-9.13086L25.0391-9.89258C24.5605-10.3711 24.1895-10.5273 23.7109-10.4883L23.1348-10.4395L22.4902-11.0742L22.7344-12.1973C22.8613-12.7637 22.7051-13.2031 22.1191-13.7891L19.9219-15.9766C16.582-19.2969 12.1484-19.2188 9.25781-16.3281C8.83789-15.918 8.80859-15.3418 9.04297-14.9512C9.27734-14.5898 9.73633-14.3555 10.3809-14.5215C11.8457-14.8633 13.3691-14.9219 14.7949-13.9844L14.209-12.5293C14.0137-12.0508 13.9844-11.6504 14.1113-11.2891L3.04688-0.898438C2.06055 0.0195312 1.98242 0.996094 2.8418 1.86523ZM10.752-15.957C13.1836-17.7344 16.4746-17.4316 18.7012-15.2051L21.1328-12.793C21.3672-12.5586 21.4062-12.373 21.3379-12.0312L21.0156-10.5469L22.5195-9.0625L23.5059-9.12109C23.7598-9.13086 23.8379-9.11133 24.0332-8.91602L24.6094-8.33984L22.168-5.89844L21.5918-6.47461C21.3965-6.66992 21.3672-6.74805 21.377-7.01172L21.4453-7.98828L19.9512-9.47266L18.4277-9.21875C18.1055-9.15039 17.959-9.17969 17.7148-9.41406L15.7129-11.416C15.459-11.6504 15.4297-11.8164 15.5859-12.1875L16.4648-14.2773C14.9023-15.7324 12.8711-16.3574 10.8398-15.7617C10.6836-15.7227 10.625-15.8496 10.752-15.957ZM5.27344 2.30469L4.10156 1.14258C3.63281 0.683594 3.74023 0.341797 4.14062-0.0195312L14.9512-10.1953L16.416-8.71094L6.42578 2.27539C6.07422 2.67578 5.74219 2.77344 5.27344 2.30469Z"/>
  </g>
  <text style="stroke:none;fill:black;font-family:-apple-system,&quot;SF Pro Display&quot;,&quot;SF Pro Text&quot;,Helvetica,sans-serif;font-weight:bold;" transform="matrix(1 0 0 1 1289 1953)">Exporting</text>
  <text style="stroke:none;fill:black;font-family:-apple-system,&quot;SF Pro Display&quot;,&quot;SF Pro Text&quot;,Helvetica,sans-serif;" transform="matrix(1 0 0 1 1289 1971)">Symbols should be outlined when exporting to ensure the</text>
  <text style="stroke:none;fill:black;font-family:-apple-system,&quot;SF Pro Display&quot;,&quot;SF Pro Text&quot;,Helvetica,sans-serif;" transform="matrix(1 0 0 1 1289 1989)">design is preserved when submitting to Xcode.</text>
  <text id="template-version" style="stroke:none;fill:black;font-family:-apple-system,&quot;SF Pro Display&quot;,&quot;SF Pro Text&quot;,Helvetica,sans-serif;text-anchor:end;" transform="matrix(1 0 0 1 3036 1933)">Template v.2.0</text>
  <text style="stroke:none;fill:black;font-family:-apple-system,&quot;SF Pro Display&quot;,&quot;SF Pro Text&quot;,Helvetica,sans-serif;text-anchor:end;" transform="matrix(1 0 0 1 3036 1951)">Requires Xcode 12 or greater</text>
  <text style="stroke:none;fill:black;font-family:-apple-system,&quot;SF Pro Display&quot;,&quot;SF Pro Text&quot;,Helvetica,sans-serif;" transform="matrix(1 0 0 1 263 726)">Small</text>
  <text style="stroke:none;fill:black;font-family:-apple-system,&quot;SF Pro Display&quot;,&quot;SF Pro Text&quot;,Helvetica,sans-serif;" transform="matrix(1 0 0 1 263 1156)">Medium</text>
  <text style="stroke:none;fill:black;font-family:-apple-system,&quot;SF Pro Display&quot;,&quot;SF Pro Text&quot;,Helvetica,sans-serif;" transform="matrix(1 0 0 1 263 1586)">Large</text>
 </g>
 <g id="Guides">
  <g id="H-reference" style="fill:#27AAE1;stroke:none;" transform="matrix(1 0 0 1 339 696)">
   <path d="M0.976562 0L3.66211 0L12.9883-24.4629L45.752-24.4629L55.127 0L57.7637 0L30.6152-70.459L28.125-70.459ZM29.3457-67.1387L29.4434-67.1387L44.873-26.709L13.8672-26.709Z"/>
  </g>
  <line id="Baseline-S" style="fill:none;stroke:#27AAE1;opacity:1;stroke-width:0.5;" x1="263" x2="3036" y1="696" y2="696"/>
  <line id="Capline-S" style="fill:none;stroke:#27AAE1;opacity:1;stroke-width:0.5;" x1="263" x2="3036" y1="625.541" y2="625.541"/>
  <g id="H-reference" style="fill:#27AAE1;stroke:none;" transform="matrix(1 0 0 1 339 1126)">
   <path d="M0.976562 0L3.66211 0L12.9883-24.4629L45.752-24.4629L55.127 0L57.7637 0L30.6152-70.459L28.125-70.459ZM29.3457-67.1387L29.4434-67.1387L44.873-26.709L13.8672-26.709Z"/>
  </g>
  <line id="Baseline-M" style="fill:none;stroke:#27AAE1;opacity:1;stroke-width:0.5;" x1="263" x2="3036" y1="1126" y2="1126"/>
  <line id="Capline-M" style="fill:none;stroke:#27AAE1;opacity:1;stroke-width:0.5;" x1="263" x2="3036" y1="1055.54" y2="1055.54"/>
  <g id="H-reference" style="fill:#27AAE1;stroke:none;" transform="matrix(1 0 0 1 339 1556)">
   <path d="M0.976562 0L3.66211 0L12.9883-24.4629L45.752-24.4629L55.127 0L57.7637 0L30.6152-70.459L28.125-70.459ZM29.3457-67.1387L29.4434-67.1387L44.873-26.709L13.8672-26.709Z"/>
  </g>
  <line id="Baseline-L" style="fill:none;stroke:#27AAE1;opacity:1;stroke-width:0.5;" x1="263" x2="3036" y1="1556" y2="1556"/>
  <line id="Capline-L" style="fill:none;stroke:#27AAE1;opacity:1;stroke-width:0.5;" x1="263" x2="3036" y1="1485.54" y2="1485.54"/>
  <line id="left-margin" x1="1402.4745404877533" x2="1402.4745404877533" y1="1030.79" y2="1150.12" style="fill:none;stroke:#00AEEF;stroke-width:0.5;opacity:1.0;"/>
  <line id="right-margin" x1="1499.7854595122465" x2="1499.7854595122465" y1="1030.79" y2="1150.12" style="fill:none;stroke:#00AEEF;stroke-width:0.5;opacity:1.0;"/>
 </g>
 <g id="Symbols">
  <g id="Black-L" transform="matrix(1.0,0.0,0.0,1.0,2873.26557458826,1459.3555941195102)">  <path stroke-opacity="1" stroke="none" stroke-linejoin="miter" stroke-miterlimit="4" stroke-linecap="butt" fill="#000000" fill-rule="nonzero" stroke-width="1px" stroke-dasharray="none" fill-opacity="1" d="M47.717,12.004C52.145,10.776,56.75,10.14,61.414,10.14C73.854,10.14,85.869,14.663,95.222,22.865C104.574,31.066,110.626,42.389,112.25,54.722C113.874,67.055,110.958,79.558,104.047,89.901C98.079,98.833,89.483,105.628,79.51,109.389C76.89,110.378,75.273,113.134,75.998,115.839C76.722,118.543,79.512,120.169,82.148,119.223C94.493,114.796,105.143,106.513,112.479,95.535C120.757,83.146,124.248,68.17,122.304,53.398C120.359,38.626,113.11,25.065,101.908,15.241C90.706,5.417,76.314,0,61.414,0C54.733,0,48.154,1.089,41.919,3.177C44.385,5.699,46.369,8.692,47.717,12.004ZM47.717,12.004"/>
  <path stroke-opacity="1" stroke="none" stroke-miterlimit="4" fill-rule="nonzero" stroke-dasharray="none" fill-opacity="1" stroke-width="1px" stroke-linejoin="miter" fill="#000000" stroke-linecap="butt" d="M3.211,41.816C1.951,45.557,1.047,49.434,0.526,53.398C-1.419,68.17,2.073,83.146,10.35,95.535C17.686,106.513,28.336,114.796,40.681,119.223C43.317,120.169,46.107,118.543,46.832,115.839C47.556,113.134,45.939,110.378,43.319,109.389C33.346,105.628,24.75,98.832,18.782,89.901C11.871,79.558,8.955,67.055,10.579,54.722C10.898,52.303,11.386,49.924,12.037,47.599C8.73,46.252,5.736,44.276,3.211,41.816ZM3.211,41.816"/>
  <path stroke-opacity="1" stroke-linecap="butt" stroke-width="1px" stroke-miterlimit="4" stroke-linejoin="miter" fill="#000000" stroke-dasharray="none" fill-rule="nonzero" fill-opacity="1" stroke="none" d="M3.701,22.187C3.701,32.551,12.146,40.842,22.356,40.842C32.566,40.842,40.934,32.551,40.934,22.187C40.934,12.054,32.566,3.686,22.356,3.686C12.146,3.686,3.701,12.054,3.701,22.187ZM3.701,22.187"/>
</g>
  <g id="Heavy-L" transform="matrix(1.0,0.0,0.0,1.0,2576.55557458826,1459.3555941195102)">  <path stroke-dasharray="none" stroke-linecap="butt" stroke="none" stroke-miterlimit="4" stroke-linejoin="miter" fill-rule="nonzero" stroke-opacity="1" fill-opacity="1" fill="#000000" stroke-width="1px" d="M47.717,12.004C52.145,10.776,56.75,10.14,61.414,10.14C73.854,10.14,85.869,14.663,95.222,22.865C104.574,31.066,110.626,42.389,112.25,54.722C113.874,67.055,110.958,79.558,104.047,89.901C98.079,98.833,89.483,105.628,79.51,109.389C76.89,110.378,75.273,113.134,75.998,115.839C76.722,118.543,79.512,120.169,82.148,119.223C94.493,114.796,105.143,106.513,112.479,95.535C120.757,83.146,124.248,68.17,122.304,53.398C120.359,38.626,113.11,25.065,101.908,15.241C90.706,5.417,76.314,0,61.414,0C54.733,0,48.154,1.089,41.919,3.177C44.385,5.699,46.369,8.692,47.717,12.004ZM47.717,12.004"/>
  <path fill-opacity="1" stroke-linejoin="miter" fill-rule="nonzero" fill="#000000" stroke-miterlimit="4" stroke-opacity="1" stroke="none" stroke-linecap="butt" stroke-width="1px" stroke-dasharray="none" d="M3.211,41.816C1.951,45.557,1.047,49.434,0.526,53.398C-1.419,68.17,2.073,83.146,10.35,95.535C17.686,106.513,28.336,114.796,40.681,119.223C43.317,120.169,46.107,118.543,46.832,115.839C47.556,113.134,45.939,110.378,43.319,109.389C33.346,105.628,24.75,98.832,18.782,89.901C11.871,79.558,8.955,67.055,10.579,54.722C10.898,52.303,11.386,49.924,12.037,47.599C8.73,46.252,5.736,44.276,3.211,41.816ZM3.211,41.816"/>
  <path fill="#000000" stroke-miterlimit="4" fill-rule="nonzero" stroke-dasharray="none" stroke="none" stroke-linecap="butt" stroke-linejoin="miter" stroke-width="1px" fill-opacity="1" stroke-opacity="1" d="M3.701,22.187C3.701,32.551,12.146,40.842,22.356,40.842C32.566,40.842,40.934,32.551,40.934,22.187C40.934,12.054,32.566,3.686,22.356,3.686C12.146,3.686,3.701,12.054,3.701,22.187ZM3.701,22.187"/>
</g>
  <g id="Bold-L" transform="matrix(1.0,0.0,0.0,1.0,2279.8455745882598,1459.3555941195102)">  <path fill="#000000" fill-opacity="1" stroke-dasharray="none" stroke-linejoin="miter" stroke="none" stroke-width="1px" stroke-linecap="butt" stroke-opacity="1" fill-rule="nonzero" stroke-miterlimit="4" d="M47.717,12.004C52.145,10.776,56.75,10.14,61.414,10.14C73.854,10.14,85.869,14.663,95.222,22.865C104.574,31.066,110.626,42.389,112.25,54.722C113.874,67.055,110.958,79.558,104.047,89.901C98.079,98.833,89.483,105.628,79.51,109.389C76.89,110.378,75.273,113.134,75.998,115.839C76.722,118.543,79.512,120.169,82.148,119.223C94.493,114.796,105.143,106.513,112.479,95.535C120.757,83.146,124.248,68.17,122.304,53.398C120.359,38.626,113.11,25.065,101.908,15.241C90.706,5.417,76.314,0,61.414,0C54.733,0,48.154,1.089,41.919,3.177C44.385,5.699,46.369,8.692,47.717,12.004ZM47.717,12.004"/>
  <path stroke-width="1px" stroke-linejoin="miter" stroke-dasharray="none" fill-rule="nonzero" fill-opacity="1" stroke-opacity="1" stroke-miterlimit="4" stroke="none" fill="#000000" stroke-linecap="butt" d="M3.211,41.816C1.951,45.557,1.047,49.434,0.526,53.398C-1.419,68.17,2.073,83.146,10.35,95.535C17.686,106.513,28.336,114.796,40.681,119.223C43.317,120.169,46.107,118.543,46.832,115.839C47.556,113.134,45.939,110.378,43.319,109.389C33.346,105.628,24.75,98.832,18.782,89.901C11.871,79.558,8.955,67.055,10.579,54.722C10.898,52.303,11.386,49.924,12.037,47.599C8.73,46.252,5.736,44.276,3.211,41.816ZM3.211,41.816"/>
  <path stroke-opacity="1" stroke-dasharray="none" stroke-width="1px" stroke-linejoin="miter" fill-rule="nonzero" fill-opacity="1" fill="#000000" stroke="none" stroke-miterlimit="4" stroke-linecap="butt" d="M3.701,22.187C3.701,32.551,12.146,40.842,22.356,40.842C32.566,40.842,40.934,32.551,40.934,22.187C40.934,12.054,32.566,3.686,22.356,3.686C12.146,3.686,3.701,12.054,3.701,22.187ZM3.701,22.187"/>
</g>
  <g id="Semibold-L" transform="matrix(1.0,0.0,0.0,1.0,1983.1355745882602,1459.3555941195102)">  <path stroke="none" stroke-width="1px" fill="#000000" fill-rule="nonzero" fill-opacity="1" stroke-miterlimit="4" stroke-opacity="1" stroke-linejoin="miter" stroke-dasharray="none" stroke-linecap="butt" d="M47.717,12.004C52.145,10.776,56.75,10.14,61.414,10.14C73.854,10.14,85.869,14.663,95.222,22.865C104.574,31.066,110.626,42.389,112.25,54.722C113.874,67.055,110.958,79.558,104.047,89.901C98.079,98.833,89.483,105.628,79.51,109.389C76.89,110.378,75.273,113.134,75.998,115.839C76.722,118.543,79.512,120.169,82.148,119.223C94.493,114.796,105.143,106.513,112.479,95.535C120.757,83.146,124.248,68.17,122.304,53.398C120.359,38.626,113.11,25.065,101.908,15.241C90.706,5.417,76.314,0,61.414,0C54.733,0,48.154,1.089,41.919,3.177C44.385,5.699,46.369,8.692,47.717,12.004ZM47.717,12.004"/>
  <path stroke-width="1px" fill="#000000" fill-rule="nonzero" stroke="none" stroke-miterlimit="4" stroke-opacity="1" stroke-linecap="butt" fill-opacity="1" stroke-linejoin="miter" stroke-dasharray="none" d="M3.211,41.816C1.951,45.557,1.047,49.434,0.526,53.398C-1.419,68.17,2.073,83.146,10.35,95.535C17.686,106.513,28.336,114.796,40.681,119.223C43.317,120.169,46.107,118.543,46.832,115.839C47.556,113.134,45.939,110.378,43.319,109.389C33.346,105.628,24.75,98.832,18.782,89.901C11.871,79.558,8.955,67.055,10.579,54.722C10.898,52.303,11.386,49.924,12.037,47.599C8.73,46.252,5.736,44.276,3.211,41.816ZM3.211,41.816"/>
  <path stroke-opacity="1" stroke="none" stroke-linecap="butt" stroke-dasharray="none" stroke-linejoin="miter" fill-opacity="1" fill="#000000" stroke-miterlimit="4" fill-rule="nonzero" stroke-width="1px" d="M3.701,22.187C3.701,32.551,12.146,40.842,22.356,40.842C32.566,40.842,40.934,32.551,40.934,22.187C40.934,12.054,32.566,3.686,22.356,3.686C12.146,3.686,3.701,12.054,3.701,22.187ZM3.701,22.187"/>
</g>
  <g id="Medium-L" transform="matrix(1.0,0.0,0.0,1.0,1686.4255745882601,1459.3555941195102)">  <path stroke-miterlimit="4" stroke-linecap="butt" fill-rule="nonzero" stroke="none" stroke-opacity="1" fill="#000000" stroke-linejoin="miter" stroke-width="1px" fill-opacity="1" stroke-dasharray="none" d="M47.717,12.004C52.145,10.776,56.75,10.14,61.414,10.14C73.854,10.14,85.869,14.663,95.222,22.865C104.574,31.066,110.626,42.389,112.25,54.722C113.874,67.055,110.958,79.558,104.047,89.901C98.079,98.833,89.483,105.628,79.51,109.389C76.89,110.378,75.273,113.134,75.998,115.839C76.722,118.543,79.512,120.169,82.148,119.223C94.493,114.796,105.143,106.513,112.479,95.535C120.757,83.146,124.248,68.17,122.304,53.398C120.359,38.626,113.11,25.065,101.908,15.241C90.706,5.417,76.314,0,61.414,0C54.733,0,48.154,1.089,41.919,3.177C44.385,5.699,46.369,8.692,47.717,12.004ZM47.717,12.004"/>
  <path fill-opacity="1" stroke-linejoin="miter" stroke-miterlimit="4" fill-rule="nonzero" stroke="none" stroke-opacity="1" fill="#000000" stroke-dasharray="none" stroke-width="1px" stroke-linecap="butt" d="M3.211,41.816C1.951,45.557,1.047,49.434,0.526,53.398C-1.419,68.17,2.073,83.146,10.35,95.535C17.686,106.513,28.336,114.796,40.681,119.223C43.317,120.169,46.107,118.543,46.832,115.839C47.556,113.134,45.939,110.378,43.319,109.389C33.346,105.628,24.75,98.832,18.782,89.901C11.871,79.558,8.955,67.055,10.579,54.722C10.898,52.303,11.386,49.924,12.037,47.599C8.73,46.252,5.736,44.276,3.211,41.816ZM3.211,41.816"/>
  <path stroke-width="1px" stroke-opacity="1" stroke-dasharray="none" stroke-miterlimit="4" stroke="none" stroke-linejoin="miter" stroke-linecap="butt" fill="#000000" fill-rule="nonzero" fill-opacity="1" d="M3.701,22.187C3.701,32.551,12.146,40.842,22.356,40.842C32.566,40.842,40.934,32.551,40.934,22.187C40.934,12.054,32.566,3.686,22.356,3.686C12.146,3.686,3.701,12.054,3.701,22.187ZM3.701,22.187"/>
</g>
  <g id="Regular-L" transform="matrix(1.0,0.0,0.0,1.0,1389.71557458826,1459.3555941195102)">  <path fill-rule="nonzero" fill="#000000" stroke-opacity="1" stroke="none" stroke-linejoin="miter" fill-opacity="1" stroke-width="1px" stroke-miterlimit="4" stroke-dasharray="none" stroke-linecap="butt" d="M47.717,12.004C52.145,10.776,56.75,10.14,61.414,10.14C73.854,10.14,85.869,14.663,95.222,22.865C104.574,31.066,110.626,42.389,112.25,54.722C113.874,67.055,110.958,79.558,104.047,89.901C98.079,98.833,89.483,105.628,79.51,109.389C76.89,110.378,75.273,113.134,75.998,115.839C76.722,118.543,79.512,120.169,82.148,119.223C94.493,114.796,105.143,106.513,112.479,95.535C120.757,83.146,124.248,68.17,122.304,53.398C120.359,38.626,113.11,25.065,101.908,15.241C90.706,5.417,76.314,0,61.414,0C54.733,0,48.154,1.089,41.919,3.177C44.385,5.699,46.369,8.692,47.717,12.004ZM47.717,12.004"/>
  <path fill-opacity="1" stroke-dasharray="none" fill-rule="nonzero" stroke-miterlimit="4" stroke="none" fill="#000000" stroke-linejoin="miter" stroke-linecap="butt" stroke-width="1px" stroke-opacity="1" d="M3.211,41.816C1.951,45.557,1.047,49.434,0.526,53.398C-1.419,68.17,2.073,83.146,10.35,95.535C17.686,106.513,28.336,114.796,40.681,119.223C43.317,120.169,46.107,118.543,46.832,115.839C47.556,113.134,45.939,110.378,43.319,109.389C33.346,105.628,24.75,98.832,18.782,89.901C11.871,79.558,8.955,67.055,10.579,54.722C10.898,52.303,11.386,49.924,12.037,47.599C8.73,46.252,5.736,44.276,3.211,41.816ZM3.211,41.816"/>
  <path stroke-width="1px" stroke-linejoin="miter" fill="#000000" stroke-miterlimit="4" fill-opacity="1" stroke-opacity="1" stroke-dasharray="none" fill-rule="nonzero" stroke="none" stroke-linecap="butt" d="M3.701,22.187C3.701,32.551,12.146,40.842,22.356,40.842C32.566,40.842,40.934,32.551,40.934,22.187C40.934,12.054,32.566,3.686,22.356,3.686C12.146,3.686,3.701,12.054,3.701,22.187ZM3.701,22.187"/>
</g>
  <g id="Light-L" transform="matrix(1.0,0.0,0.0,1.0,1093.0055745882603,1459.3555941195102)">  <path stroke-width="1px" stroke="none" fill-rule="nonzero" stroke-dasharray="none" stroke-opacity="1" stroke-linecap="butt" fill="#000000" fill-opacity="1" stroke-linejoin="miter" stroke-miterlimit="4" d="M47.717,12.004C52.145,10.776,56.75,10.14,61.414,10.14C73.854,10.14,85.869,14.663,95.222,22.865C104.574,31.066,110.626,42.389,112.25,54.722C113.874,67.055,110.958,79.558,104.047,89.901C98.079,98.833,89.483,105.628,79.51,109.389C76.89,110.378,75.273,113.134,75.998,115.839C76.722,118.543,79.512,120.169,82.148,119.223C94.493,114.796,105.143,106.513,112.479,95.535C120.757,83.146,124.248,68.17,122.304,53.398C120.359,38.626,113.11,25.065,101.908,15.241C90.706,5.417,76.314,0,61.414,0C54.733,0,48.154,1.089,41.919,3.177C44.385,5.699,46.369,8.692,47.717,12.004ZM47.717,12.004"/>
  <path fill="#000000" stroke-dasharray="none" stroke-linecap="butt" fill-opacity="1" stroke-opacity="1" fill-rule="nonzero" stroke-miterlimit="4" stroke="none" stroke-width="1px" stroke-linejoin="miter" d="M3.211,41.816C1.951,45.557,1.047,49.434,0.526,53.398C-1.419,68.17,2.073,83.146,10.35,95.535C17.686,106.513,28.336,114.796,40.681,119.223C43.317,120.169,46.107,118.543,46.832,115.839C47.556,113.134,45.939,110.378,43.319,109.389C33.346,105.628,24.75,98.832,18.782,89.901C11.871,79.558,8.955,67.055,10.579,54.722C10.898,52.303,11.386,49.924,12.037,47.599C8.73,46.252,5.736,44.276,3.211,41.816ZM3.211,41.816"/>
  <path stroke-miterlimit="4" stroke-linecap="butt" stroke-opacity="1" fill-opacity="1" stroke-linejoin="miter" fill-rule="nonzero" stroke="none" stroke-dasharray="none" stroke-width="1px" fill="#000000" d="M3.701,22.187C3.701,32.551,12.146,40.842,22.356,40.842C32.566,40.842,40.934,32.551,40.934,22.187C40.934,12.054,32.566,3.686,22.356,3.686C12.146,3.686,3.701,12.054,3.701,22.187ZM3.701,22.187"/>
</g>
  <g id="Thin-L" transform="matrix(1.0,0.0,0.0,1.0,796.2955745882601,1459.3555941195102)">  <path fill="#000000" stroke-width="1px" stroke="none" stroke-opacity="1" stroke-miterlimit="4" fill-opacity="1" stroke-linejoin="miter" fill-rule="nonzero" stroke-linecap="butt" stroke-dasharray="none" d="M47.717,12.004C52.145,10.776,56.75,10.14,61.414,10.14C73.854,10.14,85.869,14.663,95.222,22.865C104.574,31.066,110.626,42.389,112.25,54.722C113.874,67.055,110.958,79.558,104.047,89.901C98.079,98.833,89.483,105.628,79.51,109.389C76.89,110.378,75.273,113.134,75.998,115.839C76.722,118.543,79.512,120.169,82.148,119.223C94.493,114.796,105.143,106.513,112.479,95.535C120.757,83.146,124.248,68.17,122.304,53.398C120.359,38.626,113.11,25.065,101.908,15.241C90.706,5.417,76.314,0,61.414,0C54.733,0,48.154,1.089,41.919,3.177C44.385,5.699,46.369,8.692,47.717,12.004ZM47.717,12.004"/>
  <path stroke-linejoin="miter" fill-rule="nonzero" stroke-width="1px" fill="#000000" stroke-linecap="butt" fill-opacity="1" stroke-dasharray="none" stroke-opacity="1" stroke-miterlimit="4" stroke="none" d="M3.211,41.816C1.951,45.557,1.047,49.434,0.526,53.398C-1.419,68.17,2.073,83.146,10.35,95.535C17.686,106.513,28.336,114.796,40.681,119.223C43.317,120.169,46.107,118.543,46.832,115.839C47.556,113.134,45.939,110.378,43.319,109.389C33.346,105.628,24.75,98.832,18.782,89.901C11.871,79.558,8.955,67.055,10.579,54.722C10.898,52.303,11.386,49.924,12.037,47.599C8.73,46.252,5.736,44.276,3.211,41.816ZM3.211,41.816"/>
  <path stroke-opacity="1" stroke-linecap="butt" fill="#000000" stroke-miterlimit="4" fill-opacity="1" stroke-dasharray="none" stroke="none" fill-rule="nonzero" stroke-linejoin="miter" stroke-width="1px" d="M3.701,22.187C3.701,32.551,12.146,40.842,22.356,40.842C32.566,40.842,40.934,32.551,40.934,22.187C40.934,12.054,32.566,3.686,22.356,3.686C12.146,3.686,3.701,12.054,3.701,22.187ZM3.701,22.187"/>
</g>
  <g id="Ultralight-L" transform="matrix(1.0,0.0,0.0,1.0,499.58557458826016,1459.3555941195102)">  <path stroke-opacity="1" stroke-dasharray="none" stroke-linejoin="miter" stroke="none" fill="#000000" fill-opacity="1" fill-rule="nonzero" stroke-width="1px" stroke-linecap="butt" stroke-miterlimit="4" d="M47.717,12.004C52.145,10.776,56.75,10.14,61.414,10.14C73.854,10.14,85.869,14.663,95.222,22.865C104.574,31.066,110.626,42.389,112.25,54.722C113.874,67.055,110.958,79.558,104.047,89.901C98.079,98.833,89.483,105.628,79.51,109.389C76.89,110.378,75.273,113.134,75.998,115.839C76.722,118.543,79.512,120.169,82.148,119.223C94.493,114.796,105.143,106.513,112.479,95.535C120.757,83.146,124.248,68.17,122.304,53.398C120.359,38.626,113.11,25.065,101.908,15.241C90.706,5.417,76.314,0,61.414,0C54.733,0,48.154,1.089,41.919,3.177C44.385,5.699,46.369,8.692,47.717,12.004ZM47.717,12.004"/>
  <path fill-rule="nonzero" fill-opacity="1" stroke-opacity="1" stroke-miterlimit="4" stroke-dasharray="none" fill="#000000" stroke-linejoin="miter" stroke-width="1px" stroke="none" stroke-linecap="butt" d="M3.211,41.816C1.951,45.557,1.047,49.434,0.526,53.398C-1.419,68.17,2.073,83.146,10.35,95.535C17.686,106.513,28.336,114.796,40.681,119.223C43.317,120.169,46.107,118.543,46.832,115.839C47.556,113.134,45.939,110.378,43.319,109.389C33.346,105.628,24.75,98.832,18.782,89.901C11.871,79.558,8.955,67.055,10.579,54.722C10.898,52.303,11.386,49.924,12.037,47.599C8.73,46.252,5.736,44.276,3.211,41.816ZM3.211,41.816"/>
  <path stroke-dasharray="none" stroke-width="1px" stroke="none" stroke-miterlimit="4" fill-opacity="1" stroke-linecap="butt" stroke-opacity="1" fill-rule="nonzero" stroke-linejoin="miter" fill="#000000" d="M3.701,22.187C3.701,32.551,12.146,40.842,22.356,40.842C32.566,40.842,40.934,32.551,40.934,22.187C40.934,12.054,32.566,3.686,22.356,3.686C12.146,3.686,3.701,12.054,3.701,22.187ZM3.701,22.187"/>
</g>
  <g id="Black-M" transform="matrix(1.0,0.0,0.0,1.0,2887.0719182854727,1043.161937816723)">  <path stroke-opacity="1" stroke="none" stroke-linejoin="miter" stroke-miterlimit="4" stroke-linecap="butt" fill="#000000" fill-rule="nonzero" stroke-width="1px" stroke-dasharray="none" fill-opacity="1" d="M36.99,9.305C40.422,8.354,43.992,7.861,47.608,7.861C57.251,7.861,66.565,11.366,73.815,17.724C81.065,24.083,85.757,32.859,87.016,42.42C88.274,51.981,86.014,61.673,80.657,69.69C76.03,76.615,69.367,81.882,61.636,84.798C59.605,85.564,58.351,87.701,58.913,89.798C59.475,91.894,61.637,93.154,63.681,92.421C73.25,88.989,81.506,82.568,87.193,74.058C93.61,64.454,96.317,52.845,94.809,41.394C93.301,29.943,87.682,19.43,78.998,11.814C70.314,4.199,59.158,0,47.608,0C42.429,0,37.329,0.844,32.495,2.462C34.407,4.418,35.945,6.738,36.99,9.305ZM36.99,9.305"/>
  <path stroke-opacity="1" stroke="none" stroke-miterlimit="4" fill-rule="nonzero" stroke-dasharray="none" fill-opacity="1" stroke-width="1px" stroke-linejoin="miter" fill="#000000" stroke-linecap="butt" d="M2.489,32.416C1.513,35.316,0.812,38.321,0.407,41.394C-1.1,52.845,1.607,64.454,8.024,74.058C13.71,82.568,21.966,88.989,31.536,92.421C33.579,93.154,35.742,91.894,36.304,89.798C36.865,87.701,35.612,85.564,33.581,84.798C25.85,81.882,19.186,76.614,14.559,69.69C9.202,61.673,6.942,51.981,8.201,42.42C8.448,40.545,8.827,38.701,9.331,36.898C6.767,35.854,4.446,34.323,2.489,32.416ZM2.489,32.416"/>
  <path stroke-opacity="1" stroke-linecap="butt" stroke-width="1px" stroke-miterlimit="4" stroke-linejoin="miter" fill="#000000" stroke-dasharray="none" fill-rule="nonzero" fill-opacity="1" stroke="none" d="M2.869,17.2C2.869,25.233,9.415,31.66,17.33,31.66C25.245,31.66,31.732,25.233,31.732,17.2C31.732,9.344,25.245,2.858,17.33,2.858C9.415,2.858,2.869,9.344,2.869,17.2ZM2.869,17.2"/>
</g>
  <g id="Heavy-M" transform="matrix(1.0,0.0,0.0,1.0,2590.3619182854727,1043.161937816723)">  <path stroke-dasharray="none" stroke-linecap="butt" stroke="none" stroke-miterlimit="4" stroke-linejoin="miter" fill-rule="nonzero" stroke-opacity="1" fill-opacity="1" fill="#000000" stroke-width="1px" d="M36.99,9.305C40.422,8.354,43.992,7.861,47.608,7.861C57.251,7.861,66.565,11.366,73.815,17.724C81.065,24.083,85.757,32.859,87.016,42.42C88.274,51.981,86.014,61.673,80.657,69.69C76.03,76.615,69.367,81.882,61.636,84.798C59.605,85.564,58.351,87.701,58.913,89.798C59.475,91.894,61.637,93.154,63.681,92.421C73.25,88.989,81.506,82.568,87.193,74.058C93.61,64.454,96.317,52.845,94.809,41.394C93.301,29.943,87.682,19.43,78.998,11.814C70.314,4.199,59.158,0,47.608,0C42.429,0,37.329,0.844,32.495,2.462C34.407,4.418,35.945,6.738,36.99,9.305ZM36.99,9.305"/>
  <path fill-opacity="1" stroke-linejoin="miter" fill-rule="nonzero" fill="#000000" stroke-miterlimit="4" stroke-opacity="1" stroke="none" stroke-linecap="butt" stroke-width="1px" stroke-dasharray="none" d="M2.489,32.416C1.513,35.316,0.812,38.321,0.407,41.394C-1.1,52.845,1.607,64.454,8.024,74.058C13.71,82.568,21.966,88.989,31.536,92.421C33.579,93.154,35.742,91.894,36.304,89.798C36.865,87.701,35.612,85.564,33.581,84.798C25.85,81.882,19.186,76.614,14.559,69.69C9.202,61.673,6.942,51.981,8.201,42.42C8.448,40.545,8.827,38.701,9.331,36.898C6.767,35.854,4.446,34.323,2.489,32.416ZM2.489,32.416"/>
  <path fill="#000000" stroke-miterlimit="4" fill-rule="nonzero" stroke-dasharray="none" stroke="none" stroke-linecap="butt" stroke-linejoin="miter" stroke-width="1px" fill-opacity="1" stroke-opacity="1" d="M2.869,17.2C2.869,25.233,9.415,31.66,17.33,31.66C25.245,31.66,31.732,25.233,31.732,17.2C31.732,9.344,25.245,2.858,17.33,2.858C9.415,2.858,2.869,9.344,2.869,17.2ZM2.869,17.2"/>
</g>
  <g id="Bold-M" transform="matrix(1.0,0.0,0.0,1.0,2293.6519182854727,1043.161937816723)">  <path fill="#000000" fill-opacity="1" stroke-dasharray="none" stroke-linejoin="miter" stroke="none" stroke-width="1px" stroke-linecap="butt" stroke-opacity="1" fill-rule="nonzero" stroke-miterlimit="4" d="M36.99,9.305C40.422,8.354,43.992,7.861,47.608,7.861C57.251,7.861,66.565,11.366,73.815,17.724C81.065,24.083,85.757,32.859,87.016,42.42C88.274,51.981,86.014,61.673,80.657,69.69C76.03,76.615,69.367,81.882,61.636,84.798C59.605,85.564,58.351,87.701,58.913,89.798C59.475,91.894,61.637,93.154,63.681,92.421C73.25,88.989,81.506,82.568,87.193,74.058C93.61,64.454,96.317,52.845,94.809,41.394C93.301,29.943,87.682,19.43,78.998,11.814C70.314,4.199,59.158,0,47.608,0C42.429,0,37.329,0.844,32.495,2.462C34.407,4.418,35.945,6.738,36.99,9.305ZM36.99,9.305"/>
  <path stroke-width="1px" stroke-linejoin="miter" stroke-dasharray="none" fill-rule="nonzero" fill-opacity="1" stroke-opacity="1" stroke-miterlimit="4" stroke="none" fill="#000000" stroke-linecap="butt" d="M2.489,32.416C1.513,35.316,0.812,38.321,0.407,41.394C-1.1,52.845,1.607,64.454,8.024,74.058C13.71,82.568,21.966,88.989,31.536,92.421C33.579,93.154,35.742,91.894,36.304,89.798C36.865,87.701,35.612,85.564,33.581,84.798C25.85,81.882,19.186,76.614,14.559,69.69C9.202,61.673,6.942,51.981,8.201,42.42C8.448,40.545,8.827,38.701,9.331,36.898C6.767,35.854,4.446,34.323,2.489,32.416ZM2.489,32.416"/>
  <path stroke-opacity="1" stroke-dasharray="none" stroke-width="1px" stroke-linejoin="miter" fill-rule="nonzero" fill-opacity="1" fill="#000000" stroke="none" stroke-miterlimit="4" stroke-linecap="butt" d="M2.869,17.2C2.869,25.233,9.415,31.66,17.33,31.66C25.245,31.66,31.732,25.233,31.732,17.2C31.732,9.344,25.245,2.858,17.33,2.858C9.415,2.858,2.869,9.344,2.869,17.2ZM2.869,17.2"/>
</g>
  <g id="Semibold-M" transform="matrix(1.0,0.0,0.0,1.0,1996.9419182854729,1043.161937816723)">  <path stroke="none" stroke-width="1px" fill="#000000" fill-rule="nonzero" fill-opacity="1" stroke-miterlimit="4" stroke-opacity="1" stroke-linejoin="miter" stroke-dasharray="none" stroke-linecap="butt" d="M36.99,9.305C40.422,8.354,43.992,7.861,47.608,7.861C57.251,7.861,66.565,11.366,73.815,17.724C81.065,24.083,85.757,32.859,87.016,42.42C88.274,51.981,86.014,61.673,80.657,69.69C76.03,76.615,69.367,81.882,61.636,84.798C59.605,85.564,58.351,87.701,58.913,89.798C59.475,91.894,61.637,93.154,63.681,92.421C73.25,88.989,81.506,82.568,87.193,74.058C93.61,64.454,96.317,52.845,94.809,41.394C93.301,29.943,87.682,19.43,78.998,11.814C70.314,4.199,59.158,0,47.608,0C42.429,0,37.329,0.844,32.495,2.462C34.407,4.418,35.945,6.738,36.99,9.305ZM36.99,9.305"/>
  <path stroke-width="1px" fill="#000000" fill-rule="nonzero" stroke="none" stroke-miterlimit="4" stroke-opacity="1" stroke-linecap="butt" fill-opacity="1" stroke-linejoin="miter" stroke-dasharray="none" d="M2.489,32.416C1.513,35.316,0.812,38.321,0.407,41.394C-1.1,52.845,1.607,64.454,8.024,74.058C13.71,82.568,21.966,88.989,31.536,92.421C33.579,93.154,35.742,91.894,36.304,89.798C36.865,87.701,35.612,85.564,33.581,84.798C25.85,81.882,19.186,76.614,14.559,69.69C9.202,61.673,6.942,51.981,8.201,42.42C8.448,40.545,8.827,38.701,9.331,36.898C6.767,35.854,4.446,34.323,2.489,32.416ZM2.489,32.416"/>
  <path stroke-opacity="1" stroke="none" stroke-linecap="butt" stroke-dasharray="none" stroke-linejoin="miter" fill-opacity="1" fill="#000000" stroke-miterlimit="4" fill-rule="nonzero" stroke-width="1px" d="M2.869,17.2C2.869,25.233,9.415,31.66,17.33,31.66C25.245,31.66,31.732,25.233,31.732,17.2C31.732,9.344,25.245,2.858,17.33,2.858C9.415,2.858,2.869,9.344,2.869,17.2ZM2.869,17.2"/>
</g>
  <g id="Medium-M" transform="matrix(1.0,0.0,0.0,1.0,1700.2319182854728,1043.161937816723)">  <path stroke-miterlimit="4" stroke-linecap="butt" fill-rule="nonzero" stroke="none" stroke-opacity="1" fill="#000000" stroke-linejoin="miter" stroke-width="1px" fill-opacity="1" stroke-dasharray="none" d="M36.99,9.305C40.422,8.354,43.992,7.861,47.608,7.861C57.251,7.861,66.565,11.366,73.815,17.724C81.065,24.083,85.757,32.859,87.016,42.42C88.274,51.981,86.014,61.673,80.657,69.69C76.03,76.615,69.367,81.882,61.636,84.798C59.605,85.564,58.351,87.701,58.913,89.798C59.475,91.894,61.637,93.154,63.681,92.421C73.25,88.989,81.506,82.568,87.193,74.058C93.61,64.454,96.317,52.845,94.809,41.394C93.301,29.943,87.682,19.43,78.998,11.814C70.314,4.199,59.158,0,47.608,0C42.429,0,37.329,0.844,32.495,2.462C34.407,4.418,35.945,6.738,36.99,9.305ZM36.99,9.305"/>
  <path fill-opacity="1" stroke-linejoin="miter" stroke-miterlimit="4" fill-rule="nonzero" stroke="none" stroke-opacity="1" fill="#000000" stroke-dasharray="none" stroke-width="1px" stroke-linecap="butt" d="M2.489,32.416C1.513,35.316,0.812,38.321,0.407,41.394C-1.1,52.845,1.607,64.454,8.024,74.058C13.71,82.568,21.966,88.989,31.536,92.421C33.579,93.154,35.742,91.894,36.304,89.798C36.865,87.701,35.612,85.564,33.581,84.798C25.85,81.882,19.186,76.614,14.559,69.69C9.202,61.673,6.942,51.981,8.201,42.42C8.448,40.545,8.827,38.701,9.331,36.898C6.767,35.854,4.446,34.323,2.489,32.416ZM2.489,32.416"/>
  <path stroke-width="1px" stroke-opacity="1" stroke-dasharray="none" stroke-miterlimit="4" stroke="none" stroke-linejoin="miter" stroke-linecap="butt" fill="#000000" fill-rule="nonzero" fill-opacity="1" d="M2.869,17.2C2.869,25.233,9.415,31.66,17.33,31.66C25.245,31.66,31.732,25.233,31.732,17.2C31.732,9.344,25.245,2.858,17.33,2.858C9.415,2.858,2.869,9.344,2.869,17.2ZM2.869,17.2"/>
</g>
  <g id="Regular-M" transform="matrix(1.0,0.0,0.0,1.0,1403.5219182854728,1043.161937816723)">  <path fill-rule="nonzero" fill="#000000" stroke-opacity="1" stroke="none" stroke-linejoin="miter" fill-opacity="1" stroke-width="1px" stroke-miterlimit="4" stroke-dasharray="none" stroke-linecap="butt" d="M36.99,9.305C40.422,8.354,43.992,7.861,47.608,7.861C57.251,7.861,66.565,11.366,73.815,17.724C81.065,24.083,85.757,32.859,87.016,42.42C88.274,51.981,86.014,61.673,80.657,69.69C76.03,76.615,69.367,81.882,61.636,84.798C59.605,85.564,58.351,87.701,58.913,89.798C59.475,91.894,61.637,93.154,63.681,92.421C73.25,88.989,81.506,82.568,87.193,74.058C93.61,64.454,96.317,52.845,94.809,41.394C93.301,29.943,87.682,19.43,78.998,11.814C70.314,4.199,59.158,0,47.608,0C42.429,0,37.329,0.844,32.495,2.462C34.407,4.418,35.945,6.738,36.99,9.305ZM36.99,9.305"/>
  <path fill-opacity="1" stroke-dasharray="none" fill-rule="nonzero" stroke-miterlimit="4" stroke="none" fill="#000000" stroke-linejoin="miter" stroke-linecap="butt" stroke-width="1px" stroke-opacity="1" d="M2.489,32.416C1.513,35.316,0.812,38.321,0.407,41.394C-1.1,52.845,1.607,64.454,8.024,74.058C13.71,82.568,21.966,88.989,31.536,92.421C33.579,93.154,35.742,91.894,36.304,89.798C36.865,87.701,35.612,85.564,33.581,84.798C25.85,81.882,19.186,76.614,14.559,69.69C9.202,61.673,6.942,51.981,8.201,42.42C8.448,40.545,8.827,38.701,9.331,36.898C6.767,35.854,4.446,34.323,2.489,32.416ZM2.489,32.416"/>
  <path stroke-width="1px" stroke-linejoin="miter" fill="#000000" stroke-miterlimit="4" fill-opacity="1" stroke-opacity="1" stroke-dasharray="none" fill-rule="nonzero" stroke="none" stroke-linecap="butt" d="M2.869,17.2C2.869,25.233,9.415,31.66,17.33,31.66C25.245,31.66,31.732,25.233,31.732,17.2C31.732,9.344,25.245,2.858,17.33,2.858C9.415,2.858,2.869,9.344,2.869,17.2ZM2.869,17.2"/>
</g>
  <g id="Light-M" transform="matrix(1.0,0.0,0.0,1.0,1106.811918285473,1043.161937816723)">  <path stroke-width="1px" stroke="none" fill-rule="nonzero" stroke-dasharray="none" stroke-opacity="1" stroke-linecap="butt" fill="#000000" fill-opacity="1" stroke-linejoin="miter" stroke-miterlimit="4" d="M36.99,9.305C40.422,8.354,43.992,7.861,47.608,7.861C57.251,7.861,66.565,11.366,73.815,17.724C81.065,24.083,85.757,32.859,87.016,42.42C88.274,51.981,86.014,61.673,80.657,69.69C76.03,76.615,69.367,81.882,61.636,84.798C59.605,85.564,58.351,87.701,58.913,89.798C59.475,91.894,61.637,93.154,63.681,92.421C73.25,88.989,81.506,82.568,87.193,74.058C93.61,64.454,96.317,52.845,94.809,41.394C93.301,29.943,87.682,19.43,78.998,11.814C70.314,4.199,59.158,0,47.608,0C42.429,0,37.329,0.844,32.495,2.462C34.407,4.418,35.945,6.738,36.99,9.305ZM36.99,9.305"/>
  <path fill="#000000" stroke-dasharray="none" stroke-linecap="butt" fill-opacity="1" stroke-opacity="1" fill-rule="nonzero" stroke-miterlimit="4" stroke="none" stroke-width="1px" stroke-linejoin="miter" d="M2.489,32.416C1.513,35.316,0.812,38.321,0.407,41.394C-1.1,52.845,1.607,64.454,8.024,74.058C13.71,82.568,21.966,88.989,31.536,92.421C33.579,93.154,35.742,91.894,36.304,89.798C36.865,87.701,35.612,85.564,33.581,84.798C25.85,81.882,19.186,76.614,14.559,69.69C9.202,61.673,6.942,51.981,8.201,42.42C8.448,40.545,8.827,38.701,9.331,36.898C6.767,35.854,4.446,34.323,2.489,32.416ZM2.489,32.416"/>
  <path stroke-miterlimit="4" stroke-linecap="butt" stroke-opacity="1" fill-opacity="1" stroke-linejoin="miter" fill-rule="nonzero" stroke="none" stroke-dasharray="none" stroke-width="1px" fill="#000000" d="M2.869,17.2C2.869,25.233,9.415,31.66,17.33,31.66C25.245,31.66,31.732,25.233,31.732,17.2C31.732,9.344,25.245,2.858,17.33,2.858C9.415,2.858,2.869,9.344,2.869,17.2ZM2.869,17.2"/>
</g>
  <g id="Thin-M" transform="matrix(1.0,0.0,0.0,1.0,810.1019182854731,1043.161937816723)">  <path fill="#000000" stroke-width="1px" stroke="none" stroke-opacity="1" stroke-miterlimit="4" fill-opacity="1" stroke-linejoin="miter" fill-rule="nonzero" stroke-linecap="butt" stroke-dasharray="none" d="M36.99,9.305C40.422,8.354,43.992,7.861,47.608,7.861C57.251,7.861,66.565,11.366,73.815,17.724C81.065,24.083,85.757,32.859,87.016,42.42C88.274,51.981,86.014,61.673,80.657,69.69C76.03,76.615,69.367,81.882,61.636,84.798C59.605,85.564,58.351,87.701,58.913,89.798C59.475,91.894,61.637,93.154,63.681,92.421C73.25,88.989,81.506,82.568,87.193,74.058C93.61,64.454,96.317,52.845,94.809,41.394C93.301,29.943,87.682,19.43,78.998,11.814C70.314,4.199,59.158,0,47.608,0C42.429,0,37.329,0.844,32.495,2.462C34.407,4.418,35.945,6.738,36.99,9.305ZM36.99,9.305"/>
  <path stroke-linejoin="miter" fill-rule="nonzero" stroke-width="1px" fill="#000000" stroke-linecap="butt" fill-opacity="1" stroke-dasharray="none" stroke-opacity="1" stroke-miterlimit="4" stroke="none" d="M2.489,32.416C1.513,35.316,0.812,38.321,0.407,41.394C-1.1,52.845,1.607,64.454,8.024,74.058C13.71,82.568,21.966,88.989,31.536,92.421C33.579,93.154,35.742,91.894,36.304,89.798C36.865,87.701,35.612,85.564,33.581,84.798C25.85,81.882,19.186,76.614,14.559,69.69C9.202,61.673,6.942,51.981,8.201,42.42C8.448,40.545,8.827,38.701,9.331,36.898C6.767,35.854,4.446,34.323,2.489,32.416ZM2.489,32.416"/>
  <path stroke-opacity="1" stroke-linecap="butt" fill="#000000" stroke-miterlimit="4" fill-opacity="1" stroke-dasharray="none" stroke="none" fill-rule="nonzero" stroke-linejoin="miter" stroke-width="1px" d="M2.869,17.2C2.869,25.233,9.415,31.66,17.33,31.66C25.245,31.66,31.732,25.233,31.732,17.2C31.732,9.344,25.245,2.858,17.33,2.858C9.415,2.858,2.869,9.344,2.869,17.2ZM2.869,17.2"/>
</g>
  <g id="Ultralight-M" transform="matrix(1.0,0.0,0.0,1.0,513.391918285473,1043.161937816723)">  <path stroke-opacity="1" stroke-dasharray="none" stroke-linejoin="miter" stroke="none" fill="#000000" fill-opacity="1" fill-rule="nonzero" stroke-width="1px" stroke-linecap="butt" stroke-miterlimit="4" d="M36.99,9.305C40.422,8.354,43.992,7.861,47.608,7.861C57.251,7.861,66.565,11.366,73.815,17.724C81.065,24.083,85.757,32.859,87.016,42.42C88.274,51.981,86.014,61.673,80.657,69.69C76.03,76.615,69.367,81.882,61.636,84.798C59.605,85.564,58.351,87.701,58.913,89.798C59.475,91.894,61.637,93.154,63.681,92.421C73.25,88.989,81.506,82.568,87.193,74.058C93.61,64.454,96.317,52.845,94.809,41.394C93.301,29.943,87.682,19.43,78.998,11.814C70.314,4.199,59.158,0,47.608,0C42.429,0,37.329,0.844,32.495,2.462C34.407,4.418,35.945,6.738,36.99,9.305ZM36.99,9.305"/>
  <path fill-rule="nonzero" fill-opacity="1" stroke-opacity="1" stroke-miterlimit="4" stroke-dasharray="none" fill="#000000" stroke-linejoin="miter" stroke-width="1px" stroke="none" stroke-linecap="butt" d="M2.489,32.416C1.513,35.316,0.812,38.321,0.407,41.394C-1.1,52.845,1.607,64.454,8.024,74.058C13.71,82.568,21.966,88.989,31.536,92.421C33.579,93.154,35.742,91.894,36.304,89.798C36.865,87.701,35.612,85.564,33.581,84.798C25.85,81.882,19.186,76.614,14.559,69.69C9.202,61.673,6.942,51.981,8.201,42.42C8.448,40.545,8.827,38.701,9.331,36.898C6.767,35.854,4.446,34.323,2.489,32.416ZM2.489,32.416"/>
  <path stroke-dasharray="none" stroke-width="1px" stroke="none" stroke-miterlimit="4" fill-opacity="1" stroke-linecap="butt" stroke-opacity="1" fill-rule="nonzero" stroke-linejoin="miter" fill="#000000" d="M2.869,17.2C2.869,25.233,9.415,31.66,17.33,31.66C25.245,31.66,31.732,25.233,31.732,17.2C31.732,9.344,25.245,2.858,17.33,2.858C9.415,2.858,2.869,9.344,2.869,17.2ZM2.869,17.2"/>
</g>
  <g id="Black-S" transform="matrix(1.0,0.0,0.0,1.0,2897.402872017525,623.4928915487753)">  <path stroke-opacity="1" stroke="none" stroke-linejoin="miter" stroke-miterlimit="4" stroke-linecap="butt" fill="#000000" fill-rule="nonzero" stroke-width="1px" stroke-dasharray="none" fill-opacity="1" d="M28.963,7.286C31.651,6.541,34.446,6.155,37.277,6.155C44.828,6.155,52.121,8.9,57.797,13.878C63.474,18.857,67.148,25.729,68.133,33.215C69.119,40.701,67.349,48.29,63.154,54.568C59.532,59.989,54.314,64.114,48.261,66.397C46.67,66.997,45.689,68.67,46.129,70.312C46.569,71.953,48.262,72.94,49.862,72.366C57.355,69.679,63.82,64.651,68.272,57.987C73.296,50.468,75.416,41.378,74.236,32.411C73.055,23.445,68.655,15.214,61.856,9.251C55.056,3.288,46.321,0,37.277,0C33.222,0,29.228,0.661,25.444,1.928C26.941,3.459,28.145,5.276,28.963,7.286ZM28.963,7.286"/>
  <path stroke-opacity="1" stroke="none" stroke-miterlimit="4" fill-rule="nonzero" stroke-dasharray="none" fill-opacity="1" stroke-width="1px" stroke-linejoin="miter" fill="#000000" stroke-linecap="butt" d="M1.949,25.382C1.184,27.652,0.636,30.005,0.319,32.411C-0.861,41.378,1.258,50.468,6.282,57.987C10.735,64.651,17.199,69.679,24.693,72.366C26.292,72.94,27.986,71.953,28.426,70.312C28.866,68.67,27.884,66.997,26.294,66.397C20.24,64.114,15.023,59.989,11.4,54.568C7.205,48.29,5.436,40.701,6.421,33.215C6.615,31.747,6.911,30.303,7.306,28.891C5.299,28.074,3.482,26.875,1.949,25.382ZM1.949,25.382"/>
  <path stroke-opacity="1" stroke-linecap="butt" stroke-width="1px" stroke-miterlimit="4" stroke-linejoin="miter" fill="#000000" stroke-dasharray="none" fill-rule="nonzero" fill-opacity="1" stroke="none" d="M2.247,13.467C2.247,19.758,7.372,24.79,13.57,24.79C19.767,24.79,24.846,19.758,24.846,13.467C24.846,7.317,19.767,2.238,13.57,2.238C7.372,2.238,2.247,7.317,2.247,13.467ZM2.247,13.467"/>
</g>
  <g id="Heavy-S" transform="matrix(1.0,0.0,0.0,1.0,2600.692872017525,623.4928915487753)">  <path stroke-dasharray="none" stroke-linecap="butt" stroke="none" stroke-miterlimit="4" stroke-linejoin="miter" fill-rule="nonzero" stroke-opacity="1" fill-opacity="1" fill="#000000" stroke-width="1px" d="M28.963,7.286C31.651,6.541,34.446,6.155,37.277,6.155C44.828,6.155,52.121,8.9,57.797,13.878C63.474,18.857,67.148,25.729,68.133,33.215C69.119,40.701,67.349,48.29,63.154,54.568C59.532,59.989,54.314,64.114,48.261,66.397C46.67,66.997,45.689,68.67,46.129,70.312C46.569,71.953,48.262,72.94,49.862,72.366C57.355,69.679,63.82,64.651,68.272,57.987C73.296,50.468,75.416,41.378,74.236,32.411C73.055,23.445,68.655,15.214,61.856,9.251C55.056,3.288,46.321,0,37.277,0C33.222,0,29.228,0.661,25.444,1.928C26.941,3.459,28.145,5.276,28.963,7.286ZM28.963,7.286"/>
  <path fill-opacity="1" stroke-linejoin="miter" fill-rule="nonzero" fill="#000000" stroke-miterlimit="4" stroke-opacity="1" stroke="none" stroke-linecap="butt" stroke-width="1px" stroke-dasharray="none" d="M1.949,25.382C1.184,27.652,0.636,30.005,0.319,32.411C-0.861,41.378,1.258,50.468,6.282,57.987C10.735,64.651,17.199,69.679,24.693,72.366C26.292,72.94,27.986,71.953,28.426,70.312C28.866,68.67,27.884,66.997,26.294,66.397C20.24,64.114,15.023,59.989,11.4,54.568C7.205,48.29,5.436,40.701,6.421,33.215C6.615,31.747,6.911,30.303,7.306,28.891C5.299,28.074,3.482,26.875,1.949,25.382ZM1.949,25.382"/>
  <path fill="#000000" stroke-miterlimit="4" fill-rule="nonzero" stroke-dasharray="none" stroke="none" stroke-linecap="butt" stroke-linejoin="miter" stroke-width="1px" fill-opacity="1" stroke-opacity="1" d="M2.247,13.467C2.247,19.758,7.372,24.79,13.57,24.79C19.767,24.79,24.846,19.758,24.846,13.467C24.846,7.317,19.767,2.238,13.57,2.238C7.372,2.238,2.247,7.317,2.247,13.467ZM2.247,13.467"/>
</g>
  <g id="Bold-S" transform="matrix(1.0,0.0,0.0,1.0,2303.982872017525,623.4928915487753)">  <path fill="#000000" fill-opacity="1" stroke-dasharray="none" stroke-linejoin="miter" stroke="none" stroke-width="1px" stroke-linecap="butt" stroke-opacity="1" fill-rule="nonzero" stroke-miterlimit="4" d="M28.963,7.286C31.651,6.541,34.446,6.155,37.277,6.155C44.828,6.155,52.121,8.9,57.797,13.878C63.474,18.857,67.148,25.729,68.133,33.215C69.119,40.701,67.349,48.29,63.154,54.568C59.532,59.989,54.314,64.114,48.261,66.397C46.67,66.997,45.689,68.67,46.129,70.312C46.569,71.953,48.262,72.94,49.862,72.366C57.355,69.679,63.82,64.651,68.272,57.987C73.296,50.468,75.416,41.378,74.236,32.411C73.055,23.445,68.655,15.214,61.856,9.251C55.056,3.288,46.321,0,37.277,0C33.222,0,29.228,0.661,25.444,1.928C26.941,3.459,28.145,5.276,28.963,7.286ZM28.963,7.286"/>
  <path stroke-width="1px" stroke-linejoin="miter" stroke-dasharray="none" fill-rule="nonzero" fill-opacity="1" stroke-opacity="1" stroke-miterlimit="4" stroke="none" fill="#000000" stroke-linecap="butt" d="M1.949,25.382C1.184,27.652,0.636,30.005,0.319,32.411C-0.861,41.378,1.258,50.468,6.282,57.987C10.735,64.651,17.199,69.679,24.693,72.366C26.292,72.94,27.986,71.953,28.426,70.312C28.866,68.67,27.884,66.997,26.294,66.397C20.24,64.114,15.023,59.989,11.4,54.568C7.205,48.29,5.436,40.701,6.421,33.215C6.615,31.747,6.911,30.303,7.306,28.891C5.299,28.074,3.482,26.875,1.949,25.382ZM1.949,25.382"/>
  <path stroke-opacity="1" stroke-dasharray="none" stroke-width="1px" stroke-linejoin="miter" fill-rule="nonzero" fill-opacity="1" fill="#000000" stroke="none" stroke-miterlimit="4" stroke-linecap="butt" d="M2.247,13.467C2.247,19.758,7.372,24.79,13.57,24.79C19.767,24.79,24.846,19.758,24.846,13.467C24.846,7.317,19.767,2.238,13.57,2.238C7.372,2.238,2.247,7.317,2.247,13.467ZM2.247,13.467"/>
</g>
  <g id="Semibold-S" transform="matrix(1.0,0.0,0.0,1.0,2007.2728720175253,623.4928915487753)">  <path stroke="none" stroke-width="1px" fill="#000000" fill-rule="nonzero" fill-opacity="1" stroke-miterlimit="4" stroke-opacity="1" stroke-linejoin="miter" stroke-dasharray="none" stroke-linecap="butt" d="M28.963,7.286C31.651,6.541,34.446,6.155,37.277,6.155C44.828,6.155,52.121,8.9,57.797,13.878C63.474,18.857,67.148,25.729,68.133,33.215C69.119,40.701,67.349,48.29,63.154,54.568C59.532,59.989,54.314,64.114,48.261,66.397C46.67,66.997,45.689,68.67,46.129,70.312C46.569,71.953,48.262,72.94,49.862,72.366C57.355,69.679,63.82,64.651,68.272,57.987C73.296,50.468,75.416,41.378,74.236,32.411C73.055,23.445,68.655,15.214,61.856,9.251C55.056,3.288,46.321,0,37.277,0C33.222,0,29.228,0.661,25.444,1.928C26.941,3.459,28.145,5.276,28.963,7.286ZM28.963,7.286"/>
  <path stroke-width="1px" fill="#000000" fill-rule="nonzero" stroke="none" stroke-miterlimit="4" stroke-opacity="1" stroke-linecap="butt" fill-opacity="1" stroke-linejoin="miter" stroke-dasharray="none" d="M1.949,25.382C1.184,27.652,0.636,30.005,0.319,32.411C-0.861,41.378,1.258,50.468,6.282,57.987C10.735,64.651,17.199,69.679,24.693,72.366C26.292,72.94,27.986,71.953,28.426,70.312C28.866,68.67,27.884,66.997,26.294,66.397C20.24,64.114,15.023,59.989,11.4,54.568C7.205,48.29,5.436,40.701,6.421,33.215C6.615,31.747,6.911,30.303,7.306,28.891C5.299,28.074,3.482,26.875,1.949,25.382ZM1.949,25.382"/>
  <path stroke-opacity="1" stroke="none" stroke-linecap="butt" stroke-dasharray="none" stroke-linejoin="miter" fill-opacity="1" fill="#000000" stroke-miterlimit="4" fill-rule="nonzero" stroke-width="1px" d="M2.247,13.467C2.247,19.758,7.372,24.79,13.57,24.79C19.767,24.79,24.846,19.758,24.846,13.467C24.846,7.317,19.767,2.238,13.57,2.238C7.372,2.238,2.247,7.317,2.247,13.467ZM2.247,13.467"/>
</g>
  <g id="Medium-S" transform="matrix(1.0,0.0,0.0,1.0,1710.5628720175253,623.4928915487753)">  <path stroke-miterlimit="4" stroke-linecap="butt" fill-rule="nonzero" stroke="none" stroke-opacity="1" fill="#000000" stroke-linejoin="miter" stroke-width="1px" fill-opacity="1" stroke-dasharray="none" d="M28.963,7.286C31.651,6.541,34.446,6.155,37.277,6.155C44.828,6.155,52.121,8.9,57.797,13.878C63.474,18.857,67.148,25.729,68.133,33.215C69.119,40.701,67.349,48.29,63.154,54.568C59.532,59.989,54.314,64.114,48.261,66.397C46.67,66.997,45.689,68.67,46.129,70.312C46.569,71.953,48.262,72.94,49.862,72.366C57.355,69.679,63.82,64.651,68.272,57.987C73.296,50.468,75.416,41.378,74.236,32.411C73.055,23.445,68.655,15.214,61.856,9.251C55.056,3.288,46.321,0,37.277,0C33.222,0,29.228,0.661,25.444,1.928C26.941,3.459,28.145,5.276,28.963,7.286ZM28.963,7.286"/>
  <path fill-opacity="1" stroke-linejoin="miter" stroke-miterlimit="4" fill-rule="nonzero" stroke="none" stroke-opacity="1" fill="#000000" stroke-dasharray="none" stroke-width="1px" stroke-linecap="butt" d="M1.949,25.382C1.184,27.652,0.636,30.005,0.319,32.411C-0.861,41.378,1.258,50.468,6.282,57.987C10.735,64.651,17.199,69.679,24.693,72.366C26.292,72.94,27.986,71.953,28.426,70.312C28.866,68.67,27.884,66.997,26.294,66.397C20.24,64.114,15.023,59.989,11.4,54.568C7.205,48.29,5.436,40.701,6.421,33.215C6.615,31.747,6.911,30.303,7.306,28.891C5.299,28.074,3.482,26.875,1.949,25.382ZM1.949,25.382"/>
  <path stroke-width="1px" stroke-opacity="1" stroke-dasharray="none" stroke-miterlimit="4" stroke="none" stroke-linejoin="miter" stroke-linecap="butt" fill="#000000" fill-rule="nonzero" fill-opacity="1" d="M2.247,13.467C2.247,19.758,7.372,24.79,13.57,24.79C19.767,24.79,24.846,19.758,24.846,13.467C24.846,7.317,19.767,2.238,13.57,2.238C7.372,2.238,2.247,7.317,2.247,13.467ZM2.247,13.467"/>
</g>
  <g id="Regular-S" transform="matrix(1.0,0.0,0.0,1.0,1413.8528720175252,623.4928915487753)">  <path fill-rule="nonzero" fill="#000000" stroke-opacity="1" stroke="none" stroke-linejoin="miter" fill-opacity="1" stroke-width="1px" stroke-miterlimit="4" stroke-dasharray="none" stroke-linecap="butt" d="M28.963,7.286C31.651,6.541,34.446,6.155,37.277,6.155C44.828,6.155,52.121,8.9,57.797,13.878C63.474,18.857,67.148,25.729,68.133,33.215C69.119,40.701,67.349,48.29,63.154,54.568C59.532,59.989,54.314,64.114,48.261,66.397C46.67,66.997,45.689,68.67,46.129,70.312C46.569,71.953,48.262,72.94,49.862,72.366C57.355,69.679,63.82,64.651,68.272,57.987C73.296,50.468,75.416,41.378,74.236,32.411C73.055,23.445,68.655,15.214,61.856,9.251C55.056,3.288,46.321,0,37.277,0C33.222,0,29.228,0.661,25.444,1.928C26.941,3.459,28.145,5.276,28.963,7.286ZM28.963,7.286"/>
  <path fill-opacity="1" stroke-dasharray="none" fill-rule="nonzero" stroke-miterlimit="4" stroke="none" fill="#000000" stroke-linejoin="miter" stroke-linecap="butt" stroke-width="1px" stroke-opacity="1" d="M1.949,25.382C1.184,27.652,0.636,30.005,0.319,32.411C-0.861,41.378,1.258,50.468,6.282,57.987C10.735,64.651,17.199,69.679,24.693,72.366C26.292,72.94,27.986,71.953,28.426,70.312C28.866,68.67,27.884,66.997,26.294,66.397C20.24,64.114,15.023,59.989,11.4,54.568C7.205,48.29,5.436,40.701,6.421,33.215C6.615,31.747,6.911,30.303,7.306,28.891C5.299,28.074,3.482,26.875,1.949,25.382ZM1.949,25.382"/>
  <path stroke-width="1px" stroke-linejoin="miter" fill="#000000" stroke-miterlimit="4" fill-opacity="1" stroke-opacity="1" stroke-dasharray="none" fill-rule="nonzero" stroke="none" stroke-linecap="butt" d="M2.247,13.467C2.247,19.758,7.372,24.79,13.57,24.79C19.767,24.79,24.846,19.758,24.846,13.467C24.846,7.317,19.767,2.238,13.57,2.238C7.372,2.238,2.247,7.317,2.247,13.467ZM2.247,13.467"/>
</g>
  <g id="Light-S" transform="matrix(1.0,0.0,0.0,1.0,1117.1428720175254,623.4928915487753)">  <path stroke-width="1px" stroke="none" fill-rule="nonzero" stroke-dasharray="none" stroke-opacity="1" stroke-linecap="butt" fill="#000000" fill-opacity="1" stroke-linejoin="miter" stroke-miterlimit="4" d="M28.963,7.286C31.651,6.541,34.446,6.155,37.277,6.155C44.828,6.155,52.121,8.9,57.797,13.878C63.474,18.857,67.148,25.729,68.133,33.215C69.119,40.701,67.349,48.29,63.154,54.568C59.532,59.989,54.314,64.114,48.261,66.397C46.67,66.997,45.689,68.67,46.129,70.312C46.569,71.953,48.262,72.94,49.862,72.366C57.355,69.679,63.82,64.651,68.272,57.987C73.296,50.468,75.416,41.378,74.236,32.411C73.055,23.445,68.655,15.214,61.856,9.251C55.056,3.288,46.321,0,37.277,0C33.222,0,29.228,0.661,25.444,1.928C26.941,3.459,28.145,5.276,28.963,7.286ZM28.963,7.286"/>
  <path fill="#000000" stroke-dasharray="none" stroke-linecap="butt" fill-opacity="1" stroke-opacity="1" fill-rule="nonzero" stroke-miterlimit="4" stroke="none" stroke-width="1px" stroke-linejoin="miter" d="M1.949,25.382C1.184,27.652,0.636,30.005,0.319,32.411C-0.861,41.378,1.258,50.468,6.282,57.987C10.735,64.651,17.199,69.679,24.693,72.366C26.292,72.94,27.986,71.953,28.426,70.312C28.866,68.67,27.884,66.997,26.294,66.397C20.24,64.114,15.023,59.989,11.4,54.568C7.205,48.29,5.436,40.701,6.421,33.215C6.615,31.747,6.911,30.303,7.306,28.891C5.299,28.074,3.482,26.875,1.949,25.382ZM1.949,25.382"/>
  <path stroke-miterlimit="4" stroke-linecap="butt" stroke-opacity="1" fill-opacity="1" stroke-linejoin="miter" fill-rule="nonzero" stroke="none" stroke-dasharray="none" stroke-width="1px" fill="#000000" d="M2.247,13.467C2.247,19.758,7.372,24.79,13.57,24.79C19.767,24.79,24.846,19.758,24.846,13.467C24.846,7.317,19.767,2.238,13.57,2.238C7.372,2.238,2.247,7.317,2.247,13.467ZM2.247,13.467"/>
</g>
  <g id="Thin-S" transform="matrix(1.0,0.0,0.0,1.0,820.4328720175254,623.4928915487753)">  <path fill="#000000" stroke-width="1px" stroke="none" stroke-opacity="1" stroke-miterlimit="4" fill-opacity="1" stroke-linejoin="miter" fill-rule="nonzero" stroke-linecap="butt" stroke-dasharray="none" d="M28.963,7.286C31.651,6.541,34.446,6.155,37.277,6.155C44.828,6.155,52.121,8.9,57.797,13.878C63.474,18.857,67.148,25.729,68.133,33.215C69.119,40.701,67.349,48.29,63.154,54.568C59.532,59.989,54.314,64.114,48.261,66.397C46.67,66.997,45.689,68.67,46.129,70.312C46.569,71.953,48.262,72.94,49.862,72.366C57.355,69.679,63.82,64.651,68.272,57.987C73.296,50.468,75.416,41.378,74.236,32.411C73.055,23.445,68.655,15.214,61.856,9.251C55.056,3.288,46.321,0,37.277,0C33.222,0,29.228,0.661,25.444,1.928C26.941,3.459,28.145,5.276,28.963,7.286ZM28.963,7.286"/>
  <path stroke-linejoin="miter" fill-rule="nonzero" stroke-width="1px" fill="#000000" stroke-linecap="butt" fill-opacity="1" stroke-dasharray="none" stroke-opacity="1" stroke-miterlimit="4" stroke="none" d="M1.949,25.382C1.184,27.652,0.636,30.005,0.319,32.411C-0.861,41.378,1.258,50.468,6.282,57.987C10.735,64.651,17.199,69.679,24.693,72.366C26.292,72.94,27.986,71.953,28.426,70.312C28.866,68.67,27.884,66.997,26.294,66.397C20.24,64.114,15.023,59.989,11.4,54.568C7.205,48.29,5.436,40.701,6.421,33.215C6.615,31.747,6.911,30.303,7.306,28.891C5.299,28.074,3.482,26.875,1.949,25.382ZM1.949,25.382"/>
  <path stroke-opacity="1" stroke-linecap="butt" fill="#000000" stroke-miterlimit="4" fill-opacity="1" stroke-dasharray="none" stroke="none" fill-rule="nonzero" stroke-linejoin="miter" stroke-width="1px" d="M2.247,13.467C2.247,19.758,7.372,24.79,13.57,24.79C19.767,24.79,24.846,19.758,24.846,13.467C24.846,7.317,19.767,2.238,13.57,2.238C7.372,2.238,2.247,7.317,2.247,13.467ZM2.247,13.467"/>
</g>
  <g id="Ultralight-S" transform="matrix(1.0,0.0,0.0,1.0,523.7228720175253,623.4928915487753)">  <path stroke-opacity="1" stroke-dasharray="none" stroke-linejoin="miter" stroke="none" fill="#000000" fill-opacity="1" fill-rule="nonzero" stroke-width="1px" stroke-linecap="butt" stroke-miterlimit="4" d="M28.963,7.286C31.651,6.541,34.446,6.155,37.277,6.155C44.828,6.155,52.121,8.9,57.797,13.878C63.474,18.857,67.148,25.729,68.133,33.215C69.119,40.701,67.349,48.29,63.154,54.568C59.532,59.989,54.314,64.114,48.261,66.397C46.67,66.997,45.689,68.67,46.129,70.312C46.569,71.953,48.262,72.94,49.862,72.366C57.355,69.679,63.82,64.651,68.272,57.987C73.296,50.468,75.416,41.378,74.236,32.411C73.055,23.445,68.655,15.214,61.856,9.251C55.056,3.288,46.321,0,37.277,0C33.222,0,29.228,0.661,25.444,1.928C26.941,3.459,28.145,5.276,28.963,7.286ZM28.963,7.286"/>
  <path fill-rule="nonzero" fill-opacity="1" stroke-opacity="1" stroke-miterlimit="4" stroke-dasharray="none" fill="#000000" stroke-linejoin="miter" stroke-width="1px" stroke="none" stroke-linecap="butt" d="M1.949,25.382C1.184,27.652,0.636,30.005,0.319,32.411C-0.861,41.378,1.258,50.468,6.282,57.987C10.735,64.651,17.199,69.679,24.693,72.366C26.292,72.94,27.986,71.953,28.426,70.312C28.866,68.67,27.884,66.997,26.294,66.397C20.24,64.114,15.023,59.989,11.4,54.568C7.205,48.29,5.436,40.701,6.421,33.215C6.615,31.747,6.911,30.303,7.306,28.891C5.299,28.074,3.482,26.875,1.949,25.382ZM1.949,25.382"/>
  <path stroke-dasharray="none" stroke-width="1px" stroke="none" stroke-miterlimit="4" fill-opacity="1" stroke-linecap="butt" stroke-opacity="1" fill-rule="nonzero" stroke-linejoin="miter" fill="#000000" d="M2.247,13.467C2.247,19.758,7.372,24.79,13.57,24.79C19.767,24.79,24.846,19.758,24.846,13.467C24.846,7.317,19.767,2.238,13.57,2.238C7.372,2.238,2.247,7.317,2.247,13.467ZM2.247,13.467"/>
</g>
 </g>
</svg>
